# Blender v2.79 (sub 0) OBJ File: ''
# www.blender.org
mtllib DragonCorn.mtl
o Cube.001
v -0.788281 0.201327 -0.306022
v -0.554403 0.256341 -0.250983
v -0.460617 0.202628 -0.327233
v 0.054391 -0.173809 -0.428015
v -0.089869 -0.216988 -0.314258
v -0.253347 -0.291521 0.070286
v 0.068520 0.006774 0.435763
v -2.193070 0.005227 -0.135684
v -1.946798 -0.004300 -0.025749
v -2.014611 0.056459 -0.043517
v -0.954435 0.180084 0.212590
v -1.025273 0.214136 0.143503
v -1.301607 0.150288 0.141196
v -1.024850 0.270656 -0.038332
v -1.012881 0.265281 -0.084042
v -1.243630 0.236118 -0.056588
v -0.736609 0.147099 0.284152
v -0.630739 0.191752 0.266377
v -1.040001 0.033005 0.249422
v -0.925573 -0.017727 0.228274
v -0.808507 0.035648 0.294277
v 0.288446 0.393394 0.049677
v 0.014745 0.353340 0.113881
v 0.356435 0.385682 0.161392
v -1.757384 -0.038300 -0.198175
v -1.785558 -0.063400 -0.094540
v -0.712343 0.130167 -0.348125
v -1.128502 0.157911 -0.293472
v -0.914568 0.230468 -0.242185
v -0.007868 -0.061755 0.373189
v -1.073463 0.133920 0.222759
v -1.254211 0.019772 0.185161
v 0.386381 0.195004 0.421501
v 0.497490 0.278727 0.351521
v -0.114400 0.352289 0.019229
v 0.351484 0.271412 0.339836
v -0.484699 0.031680 -0.380170
v -0.054463 0.026932 -0.414308
v -0.218496 -0.069817 -0.403352
v -0.290688 0.122593 -0.379959
v -0.101175 0.207279 -0.347654
v 0.231306 0.216212 -0.374114
v 0.068008 0.127722 -0.405512
v 0.356953 0.339478 0.258754
v 0.512524 0.397381 0.170634
v 0.502943 0.348999 0.268700
v -0.323518 0.295834 0.152629
v -0.681221 0.273744 0.118163
v -0.676253 0.237638 0.186742
v -0.367952 0.320587 0.075717
v -0.495522 0.318650 -0.005639
v -0.822067 0.290435 -0.025263
v -0.723954 0.292476 0.045960
v -0.731378 -0.098408 0.183331
v -1.011969 -0.127110 0.076417
v -0.490816 -0.187987 0.132788
v -1.210591 -0.048159 0.130676
v -1.571521 0.003669 0.086555
v -1.524678 -0.063472 0.021504
v -0.435939 0.111400 0.348825
v -0.459001 0.075450 0.357861
v -0.134647 0.068414 0.406575
v -0.772165 0.110853 0.296783
v -1.105920 0.096800 0.234062
v -1.087840 0.062364 0.245989
v -0.786320 0.076527 0.305356
v 0.418106 0.328893 -0.181732
v 0.388178 0.371290 -0.060654
v -0.079850 -0.140096 0.283131
v -0.166934 -0.219776 0.185914
v -0.256898 0.308329 -0.160859
v -0.340930 0.325194 -0.074817
v 0.041709 0.352567 -0.062227
v -0.615692 0.285944 -0.165410
v -0.976916 0.252518 -0.159704
v -0.699743 0.295594 -0.086058
v -1.522670 0.103599 -0.254592
v -1.455886 0.008740 -0.271238
v -1.910409 0.049201 -0.202758
v -1.067105 0.065511 -0.322391
v -0.837309 -0.035109 -0.339804
v -1.227444 -0.131558 -0.039768
v -0.731128 -0.192512 -0.106867
v -0.681604 -0.205848 0.018021
v -1.286257 -0.116754 -0.159819
v -1.156247 -0.084926 -0.267287
v -0.496103 -0.131310 -0.341669
v -0.664693 -0.167217 -0.232104
v 0.034539 0.260905 0.289200
v 0.038890 0.317362 0.203953
v -0.324687 0.248932 0.234118
v -0.490048 0.031051 0.343179
v -0.244723 -0.046366 0.325164
v -0.173548 0.023308 0.395076
v -0.569202 -0.035169 0.276729
v -0.341622 -0.123549 0.233275
v -0.277501 0.197702 0.316363
v -0.028358 0.153441 0.384345
v 0.082573 0.201242 0.368341
v -0.388892 0.151786 0.334729
v -0.085339 0.110677 0.397693
v -1.612137 0.168437 -0.089119
v -1.678245 0.135581 -0.175652
v -1.995028 0.086611 -0.121847
v -1.322800 0.211275 -0.133763
v -1.296609 0.186496 -0.217151
v -1.654181 0.108034 0.053747
v -1.737208 0.130807 -0.026151
v -1.390729 0.175498 0.066997
v -1.031521 0.246195 0.078056
v -1.032876 0.264267 0.005647
v -1.368238 0.206615 -0.000879
v -1.416251 0.100916 0.144800
v -1.732293 0.052988 0.059029
v -1.402333 0.059551 0.159618
v -0.201344 -0.247285 -0.186408
v -0.283617 -0.274897 -0.059076
v 0.148435 0.274898 -0.280000
v -0.201374 0.267270 -0.262095
v 0.104485 0.320619 -0.168432
v 0.167888 -0.071130 -0.447667
v 0.256450 0.035799 -0.447770
v 0.351833 0.138605 -0.441304
v 0.281584 0.148388 0.436552
v 0.218946 0.105308 0.447158
v 0.146048 0.059496 0.451741
v 0.498681 0.413952 0.057633
vt 0.573300 0.778100
vt 0.599500 0.787100
vt 0.602100 0.801900
vt 0.458400 0.681900
vt 0.486800 0.682000
vt 0.480300 0.687000
vt 0.586100 0.720600
vt 0.576400 0.724100
vt 0.551100 0.708800
vt 0.568100 0.740400
vt 0.566700 0.744900
vt 0.547300 0.729900
vt 0.610700 0.723100
vt 0.620300 0.731900
vt 0.581400 0.703100
vt 0.593900 0.698900
vt 0.605800 0.709400
vt 0.708800 0.811500
vt 0.681600 0.787000
vt 0.723000 0.804100
vt 0.481700 0.722700
vt 0.471100 0.724800
vt 0.574200 0.790000
vt 0.542800 0.757200
vt 0.566500 0.764100
vt 0.575600 0.712200
vt 0.559100 0.696300
vt 0.662000 0.788500
vt 0.741600 0.770600
vt 0.750300 0.788500
vt 0.732500 0.780900
vt 0.586500 0.815400
vt 0.626100 0.850800
vt 0.602700 0.845400
vt 0.611200 0.823000
vt 0.636700 0.829200
vt 0.670900 0.855700
vt 0.646400 0.851800
vt 0.728400 0.792600
vt 0.741600 0.813000
vt 0.746000 0.800600
vt 0.646700 0.761900
vt 0.608200 0.745100
vt 0.611900 0.738300
vt 0.638000 0.767300
vt 0.620500 0.767500
vt 0.587500 0.750400
vt 0.600500 0.749600
vt 0.616000 0.691600
vt 0.585400 0.678900
vt 0.644800 0.683500
vt 0.563900 0.687700
vt 0.525700 0.687800
vt 0.530300 0.678100
vt 0.645400 0.728900
vt 0.643800 0.724200
vt 0.682300 0.734800
vt 0.608000 0.718100
vt 0.573400 0.707600
vt 0.576000 0.704800
vt 0.607400 0.714200
vt 0.635500 0.797400
vt 0.632300 0.783500
vt 0.673900 0.807000
vt 0.599300 0.775000
vt 0.565800 0.753300
vt 0.595900 0.762800
vt 0.509600 0.731800
vt 0.507600 0.743200
vt 0.479100 0.705500
vt 0.540900 0.768500
vt 0.551800 0.793000
vt 0.498100 0.778600
vt 0.535500 0.820800
vt 0.527500 0.832900
vt 0.504800 0.766800
vt 0.522100 0.772000
vt 0.572600 0.827600
vt 0.550900 0.819300
vt 0.693400 0.767400
vt 0.689200 0.778300
vt 0.650800 0.752500
vt 0.641300 0.718200
vt 0.671700 0.715000
vt 0.678700 0.728200
vt 0.633500 0.706200
vt 0.661600 0.699200
vt 0.660100 0.745100
vt 0.692000 0.748800
vt 0.703300 0.759400
vt 0.649300 0.735200
vt 0.686700 0.741500
vt 0.512800 0.712300
vt 0.502300 0.715500
vt 0.478500 0.694200
vt 0.536100 0.731800
vt 0.533500 0.740300
vt 0.515500 0.697400
vt 0.504700 0.700400
vt 0.539800 0.711200
vt 0.572900 0.730000
vt 0.569400 0.736200
vt 0.538800 0.718500
vt 0.541000 0.700800
vt 0.508800 0.690500
vt 0.543300 0.697200
vt 0.669900 0.838200
vt 0.633900 0.811800
vt 0.673400 0.822700
vt 0.712700 0.830200
vt 0.707400 0.845800
vt 0.716900 0.744200
vt 0.724400 0.752400
vt 0.708800 0.735200
vt 0.730500 0.760200
vt 0.684500 0.690000
vt 0.693800 0.706600
vt 0.674900 0.672800
vt 0.701000 0.722300
vt 0.597800 0.870800
vt 0.577900 0.868000
vt 0.619900 0.877200
vt 0.560600 0.867900
vt 0.550700 0.878500
vt 0.733500 0.824500
vt 0.501100 0.670100
vt 0.561400 0.668000
vt 0.622600 0.670300
vt 0.675700 0.875400
vt 0.657400 0.876700
vt 0.639600 0.878500
vn -0.0824 0.6651 -0.7422
vn -0.0529 0.8706 -0.4891
vn -0.0522 0.6400 -0.7666
vn -0.9866 -0.1064 -0.1238
vn -0.3059 -0.5949 0.7433
vn -0.4480 0.4811 0.7536
vn -0.1551 0.7285 0.6672
vn -0.1617 0.8448 0.5101
vn -0.2207 0.7246 0.6529
vn -0.1258 0.9920 -0.0130
vn -0.1154 0.9770 -0.1795
vn -0.1622 0.9866 -0.0165
vn -0.1475 0.5486 0.8229
vn -0.1176 0.7315 0.6716
vn -0.1893 -0.4525 0.8714
vn -0.1463 -0.6838 0.7149
vn -0.1591 -0.4149 0.8958
vn -0.0886 0.9947 -0.0515
vn -0.1168 0.9568 0.2664
vn -0.1093 0.9517 0.2870
vn -0.1676 -0.7263 -0.6667
vn -0.1603 -0.9852 0.0613
vn -0.0799 0.2910 -0.9534
vn -0.1346 0.5427 -0.8291
vn -0.1099 0.8772 -0.4674
vn -0.2017 0.5594 0.8040
vn -0.2180 -0.5218 0.8247
vn -0.0862 0.9963 -0.0020
vn 0.6169 -0.0350 0.7862
vn 0.6636 0.0319 0.7474
vn -0.1066 0.7371 0.6673
vn -0.0887 0.0539 -0.9946
vn -0.0944 0.1265 -0.9875
vn -0.1238 -0.0963 -0.9876
vn -0.0677 0.3179 -0.9457
vn -0.0610 0.6516 -0.7561
vn 0.5414 -0.0113 -0.8407
vn -0.0978 0.3454 -0.9334
vn -0.1129 0.8383 0.5333
vn 0.8152 0.3645 0.4501
vn 0.6876 0.2196 0.6920
vn -0.1078 0.8972 0.4283
vn -0.1063 0.9144 0.3907
vn -0.1105 0.8545 0.5075
vn -0.0977 0.9660 0.2394
vn -0.0850 0.9963 0.0152
vn -0.0986 0.9951 0.0036
vn -0.1011 0.9735 0.2054
vn -0.1434 -0.7372 0.6603
vn -0.1568 -0.8667 0.4735
vn -0.1788 -0.7868 0.5908
vn -0.1682 -0.7436 0.6472
vn -0.2276 -0.5702 0.7894
vn -0.1672 -0.8551 0.4908
vn -0.1346 0.3925 0.9098
vn -0.1563 0.0648 0.9856
vn -0.1519 0.1257 0.9804
vn -0.1658 0.3856 0.9076
vn -0.2336 0.3321 0.9139
vn -0.2386 -0.0407 0.9703
vn -0.1732 0.0684 0.9825
vn -0.0498 0.9451 -0.3230
vn -0.0700 0.9834 -0.1677
vn -0.0624 0.9695 -0.2369
vn -0.0739 0.9549 -0.2876
vn -0.1139 0.9538 -0.2780
vn -0.0862 0.9851 -0.1488
vn -0.1686 0.4457 -0.8792
vn -0.1446 -0.2084 -0.9673
vn -0.2378 0.2703 -0.9329
vn -0.1167 0.0685 -0.9908
vn -0.1193 -0.2599 -0.9583
vn -0.1405 -0.9814 0.1309
vn -0.1335 -0.9788 -0.1553
vn -0.1665 -0.9689 0.1831
vn -0.1210 -0.9625 -0.2427
vn -0.1324 -0.7161 -0.6853
vn -0.1384 -0.6538 -0.7439
vn -0.1246 -0.9213 -0.3683
vn -0.1200 0.7956 0.5938
vn -0.1303 0.8727 0.4705
vn -0.1045 0.8401 0.5322
vn -0.1504 -0.4236 0.8933
vn -0.1634 -0.6384 0.7521
vn -0.1733 -0.3651 0.9147
vn -0.1323 -0.6599 0.7396
vn -0.1588 -0.6851 0.7110
vn -0.1120 0.7104 0.6948
vn -0.1286 0.5091 0.8510
vn -0.1229 0.6650 0.7367
vn -0.1231 0.5316 0.8380
vn -0.1315 0.3992 0.9074
vn -0.1972 0.9797 -0.0345
vn -0.1916 0.8674 -0.4592
vn -0.3089 0.9345 -0.1770
vn -0.1562 0.9586 -0.2380
vn -0.1558 0.8574 -0.4905
vn -0.2749 0.6892 0.6703
vn -0.2385 0.9142 0.3276
vn -0.2157 0.8650 0.4531
vn -0.1505 0.9251 0.3488
vn -0.1413 0.9737 0.1787
vn -0.1942 0.9536 0.2300
vn -0.2729 0.4522 0.8491
vn -0.3080 0.0779 0.9482
vn -0.2786 -0.0716 0.9577
vn 0.1612 0.8119 -0.5611
vn -0.0431 0.8621 -0.5048
vn -0.0426 0.9341 -0.3543
vn 0.4446 0.8048 -0.3932
vn 0.8569 0.2855 -0.4292
vn 0.4306 -0.3571 0.8289
vn 0.4926 -0.2702 0.8273
vn 0.3159 -0.5977 0.7369
vn 0.4961 -0.1090 0.8614
vn 0.2997 -0.8512 0.4309
vn 0.3105 -0.8356 0.4532
vn 0.2220 -0.9428 0.2487
vn 0.2926 -0.8015 0.5215
vn 0.2942 -0.9166 -0.2706
vn 0.2978 -0.9384 -0.1753
vn 0.3579 -0.6493 -0.6711
vn 0.1795 -0.9761 -0.1222
vn 0.8937 0.4450 0.0565
vn 0.4997 -0.3255 -0.8027
vn 0.4499 -0.4303 -0.7826
vn 0.4431 -0.5031 -0.7420
usemtl Material.001
s 1
f 1/1/1 2/2/2 3/3/3
f 8/4/4 9/5/5 10/6/6
f 11/7/7 12/8/8 13/9/9
f 14/10/10 15/11/11 16/12/12
f 11/7/7 17/13/13 18/14/14
f 19/15/15 20/16/16 21/17/17
f 22/18/18 23/19/19 24/20/20
f 8/4/4 25/21/21 26/22/22
f 1/1/1 27/23/23 28/24/24
f 1/1/1 29/25/25 2/2/2
f 11/7/7 31/26/26 17/13/13
f 19/15/15 32/27/27 20/16/16
f 22/18/18 35/28/28 23/19/19
f 33/29/29 34/30/30 36/31/31
f 1/1/1 3/3/3 27/23/23
f 37/32/32 38/33/33 39/34/34
f 37/32/32 40/35/35 38/33/33
f 41/36/36 42/37/37 43/38/38
f 44/39/39 45/40/40 24/20/20
f 44/39/39 46/41/41 45/40/40
f 47/42/42 48/43/43 49/44/44
f 47/42/42 50/45/45 48/43/43
f 51/46/46 52/47/47 53/48/48
f 54/49/49 55/50/50 56/51/51
f 54/49/49 57/52/52 55/50/50
f 58/53/53 9/5/5 59/54/54
f 60/55/55 61/56/56 62/57/57
f 60/55/55 63/58/58 61/56/56
f 64/59/59 65/60/60 66/61/61
f 71/62/62 72/63/63 73/64/64
f 71/62/62 74/65/65 72/63/63
f 75/66/66 15/11/11 76/67/67
f 77/68/68 78/69/69 79/70/70
f 77/68/68 80/71/71 78/69/69
f 37/32/32 39/34/34 81/72/72
f 82/73/73 83/74/74 84/75/75
f 82/73/73 85/76/76 83/74/74
f 86/77/77 87/78/78 88/79/79
f 44/39/39 89/80/80 36/31/31
f 44/39/39 90/81/81 89/80/80
f 47/42/42 49/44/44 91/82/82
f 92/83/83 93/84/84 94/85/85
f 92/83/83 95/86/86 93/84/84
f 54/49/49 56/51/51 96/87/87
f 97/88/88 98/89/89 99/90/90
f 97/88/88 100/91/91 98/89/89
f 60/55/55 62/57/57 101/92/92
f 102/93/93 103/94/94 104/95/95
f 102/93/93 105/96/96 103/94/94
f 75/66/66 29/25/25 106/97/97
f 107/98/98 108/99/99 10/6/6
f 107/98/98 109/100/100 108/99/99
f 110/101/101 111/102/102 112/103/103
f 107/98/98 113/104/104 13/9/9
f 107/98/98 114/105/105 113/104/104
f 58/53/53 32/27/27 115/106/106
f 41/36/36 118/107/107 42/37/37
f 41/36/36 119/108/108 118/107/107
f 71/62/62 73/64/64 120/109/109
f 120/109/109 68/110/110 67/111/111
f 120/109/109 73/64/64 68/110/110
f 73/64/64 22/18/18 68/110/110
f 118/107/107 120/109/109 67/111/111
f 118/107/107 119/108/108 120/109/109
f 119/108/108 71/62/62 120/109/109
f 115/106/106 65/60/60 64/59/59
f 115/106/106 32/27/27 65/60/60
f 32/27/27 19/15/15 65/60/60
f 113/104/104 115/106/106 64/59/59
f 113/104/104 114/105/105 115/106/106
f 114/105/105 58/53/53 115/106/106
f 13/9/9 31/26/26 11/7/7
f 13/9/9 113/104/104 31/26/26
f 113/104/104 64/59/59 31/26/26
f 112/103/103 16/12/12 102/93/93
f 112/103/103 111/102/102 16/12/12
f 111/102/102 14/10/10 16/12/12
f 108/99/99 112/103/103 102/93/93
f 108/99/99 109/100/100 112/103/103
f 109/100/100 110/101/101 112/103/103
f 10/6/6 104/95/95 8/4/4
f 10/6/6 108/99/99 104/95/95
f 108/99/99 102/93/93 104/95/95
f 106/97/97 28/24/24 77/68/68
f 106/97/97 29/25/25 28/24/24
f 29/25/25 1/1/1 28/24/24
f 103/94/94 106/97/97 77/68/68
f 103/94/94 105/96/96 106/97/97
f 105/96/96 75/66/66 106/97/97
f 104/95/95 79/70/70 8/4/4
f 104/95/95 103/94/94 79/70/70
f 103/94/94 77/68/68 79/70/70
f 101/92/92 126/112/112 125/113/113
f 101/92/92 62/57/57 126/112/112
f 62/57/57 7/114/114 126/112/112
f 98/89/89 101/92/92 125/113/113
f 98/89/89 100/91/91 101/92/92
f 100/91/91 60/55/55 101/92/92
f 99/90/90 124/115/115 33/29/29
f 99/90/90 98/89/89 124/115/115
f 98/89/89 125/113/113 124/115/115
f 96/87/87 70/116/116 69/117/117
f 96/87/87 56/51/51 70/116/116
f 56/51/51 6/118/118 70/116/116
f 93/84/84 96/87/87 69/117/117
f 93/84/84 95/86/86 96/87/87
f 95/86/86 54/49/49 96/87/87
f 94/85/85 30/119/119 7/114/114
f 94/85/85 93/84/84 30/119/119
f 93/84/84 69/117/117 30/119/119
f 91/82/82 18/14/14 97/88/88
f 91/82/82 49/44/44 18/14/14
f 49/44/44 11/7/7 18/14/14
f 89/80/80 91/82/82 97/88/88
f 89/80/80 90/81/81 91/82/82
f 90/81/81 47/42/42 91/82/82
f 36/31/31 99/90/90 33/29/29
f 36/31/31 89/80/80 99/90/90
f 89/80/80 97/88/88 99/90/90
f 88/79/79 5/120/120 116/121/121
f 88/79/79 87/78/78 5/120/120
f 87/78/78 4/122/122 5/120/120
f 83/74/74 88/79/79 116/121/121
f 83/74/74 85/76/76 88/79/79
f 85/76/76 86/77/77 88/79/79
f 84/75/75 117/123/123 6/124/118
f 84/75/75 83/74/74 117/123/123
f 83/74/74 116/121/121 117/123/123
f 81/72/72 87/78/78 86/77/77
f 81/72/72 39/34/34 87/78/78
f 39/34/34 4/122/122 87/78/78
f 78/69/69 81/72/72 86/77/77
f 78/69/69 80/71/71 81/72/72
f 80/71/71 37/32/32 81/72/72
f 79/70/70 25/21/21 8/4/4
f 79/70/70 78/69/69 25/21/21
f 78/69/69 86/77/77 25/21/21
f 76/67/67 52/47/47 51/46/46
f 76/67/67 15/11/11 52/47/47
f 15/11/11 14/10/10 52/47/47
f 72/63/63 76/67/67 51/46/46
f 72/63/63 74/65/65 76/67/67
f 74/65/65 75/66/66 76/67/67
f 73/64/64 35/28/28 22/18/18
f 73/64/64 72/63/63 35/28/28
f 72/63/63 51/46/46 35/28/28
f 68/110/110 22/18/18 127/125/124
f 66/61/61 21/17/17 92/83/83
f 66/61/61 65/60/60 21/17/17
f 65/60/60 19/15/15 21/17/17
f 61/56/56 66/61/61 92/83/83
f 61/56/56 63/58/58 66/61/61
f 63/58/58 64/59/59 66/61/61
f 62/57/57 94/85/85 7/114/114
f 62/57/57 61/56/56 94/85/85
f 61/56/56 92/83/83 94/85/85
f 59/54/54 26/126/22 82/127/73
f 59/54/54 9/5/5 26/126/22
f 9/5/5 8/4/4 26/126/22
f 55/50/50 59/54/54 82/127/73
f 55/50/50 57/52/52 59/54/54
f 57/52/52 58/53/53 59/54/54
f 56/51/51 84/128/75 6/118/118
f 56/51/51 55/50/50 84/128/75
f 55/50/50 82/127/73 84/128/75
f 53/48/48 111/102/102 110/101/101
f 53/48/48 52/47/47 111/102/102
f 52/47/47 14/10/10 111/102/102
f 48/43/43 53/48/48 110/101/101
f 48/43/43 50/45/45 53/48/48
f 50/45/45 51/46/46 53/48/48
f 49/44/44 12/8/8 11/7/7
f 49/44/44 48/43/43 12/8/8
f 48/43/43 110/101/101 12/8/8
f 24/20/20 127/125/124 22/18/18
f 24/20/20 45/40/40 127/125/124
f 43/38/38 123/129/125 122/130/126
f 43/38/38 42/37/37 123/129/125
f 38/33/33 43/38/38 122/130/126
f 38/33/33 40/35/35 43/38/38
f 40/35/35 41/36/36 43/38/38
f 39/34/34 121/131/127 4/122/122
f 39/34/34 38/33/33 121/131/127
f 38/33/33 122/130/126 121/131/127
f 27/23/23 40/35/35 37/32/32
f 27/23/23 3/3/3 40/35/35
f 3/3/3 41/36/36 40/35/35
f 36/31/31 46/41/41 44/39/39
f 36/31/31 34/30/30 46/41/41
f 23/19/19 50/45/45 47/42/42
f 23/19/19 35/28/28 50/45/45
f 35/28/28 51/46/46 50/45/45
f 20/16/16 57/52/52 54/49/49
f 20/16/16 32/27/27 57/52/52
f 32/27/27 58/53/53 57/52/52
f 17/13/13 63/58/58 60/55/55
f 17/13/13 31/26/26 63/58/58
f 31/26/26 64/59/59 63/58/58
f 2/2/2 74/65/65 71/62/62
f 2/2/2 29/25/25 74/65/65
f 29/25/25 75/66/66 74/65/65
f 28/24/24 80/71/71 77/68/68
f 28/24/24 27/23/23 80/71/71
f 27/23/23 37/32/32 80/71/71
f 26/22/22 85/76/76 82/73/73
f 26/22/22 25/21/21 85/76/76
f 25/21/21 86/77/77 85/76/76
f 24/20/20 90/81/81 44/39/39
f 24/20/20 23/19/19 90/81/81
f 23/19/19 47/42/42 90/81/81
f 21/17/17 95/86/86 92/83/83
f 21/17/17 20/16/16 95/86/86
f 20/16/16 54/49/49 95/86/86
f 18/14/14 100/91/91 97/88/88
f 18/14/14 17/13/13 100/91/91
f 17/13/13 60/55/55 100/91/91
f 16/12/12 105/96/96 102/93/93
f 16/12/12 15/11/11 105/96/96
f 15/11/11 75/66/66 105/96/96
f 13/9/9 109/100/100 107/98/98
f 13/9/9 12/8/8 109/100/100
f 12/8/8 110/101/101 109/100/100
f 10/6/6 114/105/105 107/98/98
f 10/6/6 9/5/5 114/105/105
f 9/5/5 58/53/53 114/105/105
f 3/3/3 119/108/108 41/36/36
f 3/3/3 2/2/2 119/108/108
f 2/2/2 71/62/62 119/108/108
f 127/125/124 45/40/40 46/41/41 34/30/30 33/29/29 124/115/115 125/113/113 126/112/112 7/114/114 30/119/119 69/117/117 70/116/116 6/118/118 117/123/123 116/121/121 5/120/120 4/122/122 121/131/127 122/130/126 123/129/125 42/37/37 118/107/107 67/111/111 68/110/110
